<svg xmlns="http://www.w3.org/2000/svg" width="55.4" height="84.1" viewBox="0 0 55.4 84.1" overflow="scroll"><style>.st0{fill:none;stroke:#18E591;stroke-width:2;stroke-miterlimit:10;} .st1{fill:#18E591;}</style><path class="st0" d="M36.7 83.1H5.8C3.1 83.1 1 81 1 78.4v-61c0-2.6 2.1-4.8 4.8-4.8h30.9c2.6 0 4.8 2.1 4.8 4.8v60.9c0 2.7-2.2 4.8-4.8 4.8z"/><ellipse class="st0" cx="21.2" cy="75.8" rx="4.4" ry="2"/><path class="st0" d="M18.2 17.1h6"/><path class="st1" d="M17.2 48c0 .4.3.7.7.7h.7V51c0 .6.5 1 1 1 .6 0 1-.5 1-1v-2.4h1.3V51c0 .6.5 1 1 1 .6 0 1-.5 1-1v-2.4h.7c.4 0 .7-.3.7-.7v-6.7h-8.1V48zm-1.7-6.7c-.6 0-1 .5-1 1V47c0 .6.5 1 1 1 .6 0 1-.5 1-1v-4.7c0-.6-.4-1-1-1zm11.5 0c-.6 0-1 .5-1 1V47c0 .6.5 1 1 1 .6 0 1-.5 1-1v-4.7c0-.6-.5-1-1-1zm-3.4-3.9l.9-.9c.1-.1.1-.3 0-.5-.1-.1-.3-.1-.5 0l-1 1c-.5-.3-1.1-.4-1.8-.4-.6 0-1.3.2-1.8.4l-1-1c-.1-.1-.3-.1-.5 0-.1.1-.1.3 0 .5l.9.9c-1 .7-1.6 1.9-1.6 3.2h8.1c0-1.3-.7-2.5-1.7-3.2zm-3.7 1.9h-.7v-.7h.7v.7zm3.4 0h-.7v-.7h.7v.7z"/><g><path class="st0" d="M7.2 9.8V6.6C7.2 3.5 9.7 1 12.8 1h36.1c3.1 0 5.6 2.5 5.6 5.6v71c0 3.1-2.5 5.6-5.6 5.6H44M27.3 6.2h7"/></g></svg>