<svg xmlns="http://www.w3.org/2000/svg" width="55.4" height="84.1" viewBox="0 0 55.4 84.1" overflow="scroll"><style>.st0{fill:none;stroke:#18E591;stroke-width:2;stroke-miterlimit:10;} .st1{fill-rule:evenodd;clip-rule:evenodd;fill:#18E591;}</style><path class="st0" d="M36.7 83.1H5.8C3.1 83.1 1 81 1 78.4v-61c0-2.6 2.1-4.8 4.8-4.8h30.9c2.6 0 4.8 2.1 4.8 4.8v60.9c0 2.7-2.2 4.8-4.8 4.8z"/><circle class="st0" cx="21.2" cy="75.7" r="3"/><path class="st0" d="M18.2 17.1h6"/><path class="st1" d="M23.6 38.5c1.1-1.3.8-2.6.8-2.6s-1.5 0-2.5 1.4c-.9 1.2-.7 2.3-.7 2.3s1.3.2 2.4-1.1zM25.6 44.5c0-2.2 1.7-3.1 1.7-3.1s-.9-1.6-3.2-1.6c-1.3 0-2.3.8-2.9.8-.6 0-1.6-.7-2.8-.7-1.9 0-3.9 1.7-3.9 4.9 0 3.3 2.4 7.3 4.2 7.3.7 0 1.7-.7 2.7-.7 1 0 1.7.6 2.7.6 2.1 0 3.6-4.3 3.6-4.3s-2.1-.8-2.1-3.2z"/><g><path class="st0" d="M7.2 9.8V6.6C7.2 3.5 9.7 1 12.8 1h36.1c3.1 0 5.6 2.5 5.6 5.6v71c0 3.1-2.5 5.6-5.6 5.6H44M27.3 6.2h7"/></g></svg>