<svg xmlns="http://www.w3.org/2000/svg" width="106.1" height="97.6" viewBox="0 0 106.1 97.6" overflow="scroll"><style>.st0{fill:none;stroke:#18E591;stroke-width:2;stroke-miterlimit:10;}</style><path class="st0" d="M46.6 96.6h-31c-2.6 0-4.8-2.1-4.8-4.8V30.9c0-2.6 2.1-4.8 4.8-4.8h30.9c2.6 0 4.8 2.1 4.8 4.8v60.9c0 2.6-2.1 4.8-4.7 4.8z"/><circle class="st0" cx="31.1" cy="89.1" r="3"/><path class="st0" d="M28.1 30.5h6"/><g><path class="st0" d="M17.1 23.2V20c0-3.1 2.5-5.6 5.6-5.6h36.1c3.1 0 5.6 2.5 5.6 5.6v71c0 3.1-2.5 5.6-5.6 5.6H54M37.1 19.6h7"/></g><g><path class="st0" d="M6.4 75.6h-.6c-2.6 0-4.8-2.1-4.8-4.8v-65C1 3.1 3.1 1 5.8 1h94.6c2.6 0 4.8 2.1 4.8 4.8v65c0 2.6-2.1 4.8-4.8 4.8h-32M105.1 57.6H68.4M1 57.6h5.4"/></g><path class="st0" d="M68.4 96.6h8.3"/></svg>