<svg xmlns="http://www.w3.org/2000/svg" width="181.6" height="27.1" viewBox="0 0 181.6 27.1" overflow="scroll"><style>.st0{fill:#2D2D2D;} .st1{fill:#18E591;}</style><path class="st0" d="M5.1 9.9c1.4-2.3 3.5-3.4 6.3-3.4s5 1 6.8 2.9c1.8 1.9 2.7 4.4 2.7 7.4s-.9 5.5-2.7 7.4c-1.8 1.9-4 2.9-6.8 2.9s-4.8-1.2-6.3-3.7v3.4H0V0h5.1v9.9zm9 11.2c1.1-1.1 1.6-2.5 1.6-4.3 0-1.8-.5-3.3-1.6-4.3s-2.3-1.6-3.7-1.6-2.7.5-3.7 1.6c-1.1 1.1-1.6 2.5-1.6 4.3s.5 3.3 1.6 4.3c1.1 1.1 2.3 1.6 3.7 1.6s2.7-.5 3.7-1.6zM26.5 24.2c-2-1.9-2.9-4.4-2.9-7.5 0-3.1 1-5.6 3-7.5 2-1.9 4.4-2.8 7.4-2.8 2.9 0 5.4.9 7.4 2.8s3 4.4 3 7.5c0 3.1-1 5.6-3 7.5s-4.5 2.9-7.4 2.9c-3.1 0-5.6-.9-7.5-2.9zm7.3-1.4c1.4 0 2.7-.5 3.7-1.6s1.5-2.5 1.5-4.5c0-1.9-.5-3.4-1.5-4.4-1-1-2.2-1.6-3.7-1.6-1.4 0-2.7.5-3.6 1.6-1 1-1.5 2.5-1.5 4.5 0 1.9.5 3.4 1.5 4.5 1 1 2.2 1.5 3.6 1.5zM64.3 6.7l-6.5 9.8 6.5 10.3h-5.7l-3.8-6.1-3.8 6.1h-5.1l6.5-9.8-6.6-10.3h5.7l3.8 6.1L59 6.7h5.3z"/><path class="st1" d="M72.3 6.7v3c1.3-2.2 3.4-3.3 6.2-3.3 1.5 0 2.9.4 4.1 1.1s2.1 1.7 2.8 3c.7-1.3 1.7-2.2 2.9-3s2.6-1.1 4.1-1.1c2.4 0 4.3.7 5.8 2.2 1.5 1.5 2.2 3.6 2.2 6.3v11.8h-5.1v-11c0-1.6-.4-2.8-1.2-3.6s-1.9-1.3-3.3-1.3-2.5.4-3.3 1.3c-.8.8-1.2 2-1.2 3.6v11.1h-5.1V15.7c0-1.6-.4-2.8-1.2-3.6-.8-.8-1.9-1.3-3.3-1.3s-2.5.4-3.3 1.3c-.8.8-1.2 2-1.2 3.6v11.1h-5.1V6.7h5.2zM107.2 24.2c-2-1.9-2.9-4.4-2.9-7.5 0-3.1 1-5.6 3-7.5 2-1.9 4.4-2.8 7.4-2.8 2.9 0 5.4.9 7.4 2.8s3 4.4 3 7.5c0 3.1-1 5.6-3 7.5s-4.5 2.9-7.4 2.9c-3.1 0-5.6-.9-7.5-2.9zm7.3-1.4c1.4 0 2.7-.5 3.7-1.6s1.5-2.5 1.5-4.5c0-1.9-.5-3.4-1.5-4.4-1-1-2.2-1.6-3.7-1.6-1.4 0-2.7.5-3.6 1.6-1 1-1.5 2.5-1.5 4.5 0 1.9.5 3.4 1.5 4.5 1 1 2.2 1.5 3.6 1.5zM130.3 24.2c-1.8-1.9-2.7-4.4-2.7-7.4s.9-5.5 2.7-7.4c1.8-1.9 4.1-2.9 6.8-2.9 2.8 0 4.9 1.1 6.3 3.4V0h5.1v26.8h-5.1v-3.4c-1.5 2.4-3.6 3.7-6.3 3.7s-5-1-6.8-2.9zm11.5-3.1c1.1-1.1 1.6-2.5 1.6-4.3s-.5-3.3-1.6-4.3c-1.1-1.1-2.3-1.6-3.7-1.6s-2.7.5-3.7 1.6c-1.1 1-1.6 2.5-1.6 4.3 0 1.8.5 3.3 1.6 4.3s2.3 1.6 3.7 1.6 2.6-.5 3.7-1.6zM162.4 27.1c-2.9 0-5.3-.9-7.1-2.8s-2.8-4.4-2.8-7.5c0-3.1.9-5.6 2.8-7.5 1.8-1.9 4.2-2.8 7.2-2.8 2.9 0 5.3.9 7.2 2.7 1.9 1.8 2.8 4.3 2.8 7.3 0 .7 0 1.4-.1 2h-14.6c.1 1.3.6 2.4 1.4 3.2.8.8 1.9 1.2 3.2 1.2 1.8 0 3.1-.7 3.9-2.2h5.5c-.6 1.9-1.7 3.5-3.4 4.7-1.7 1.1-3.7 1.7-6 1.7zm3.3-15.1c-.9-.8-2-1.2-3.3-1.2-1.3 0-2.3.4-3.2 1.2-.9.8-1.4 1.9-1.5 3.2h9.5c-.1-1.4-.6-2.4-1.5-3.2zM176.5 26.8V0h5.1v26.8h-5.1z"/></svg>